<svg id="visual" viewBox="0 0 900 600" width="900" height="600" xmlns="http://www.w3.org/2000/svg" xmlns:xlink="http://www.w3.org/1999/xlink" version="1.1"><rect x="0" y="0" width="900" height="600" fill="#001220"></rect><defs><linearGradient id="grad1_0" x1="33.3%" y1="0%" x2="100%" y2="100%"><stop offset="20%" stop-color="#001220" stop-opacity="1"></stop><stop offset="80%" stop-color="#001220" stop-opacity="1"></stop></linearGradient></defs><defs><linearGradient id="grad2_0" x1="0%" y1="0%" x2="66.7%" y2="100%"><stop offset="20%" stop-color="#001220" stop-opacity="1"></stop><stop offset="80%" stop-color="#001220" stop-opacity="1"></stop></linearGradient></defs><g transform="translate(900, 0)"><path d="M0 432.7C-86.1 427.4 -172.2 422.1 -216.3 374.7C-260.5 327.3 -262.8 238 -291.9 168.5C-320.9 99 -376.8 49.5 -432.7 0L0 0Z" fill="#F96D00"></path></g><g transform="translate(0, 600)"><path d="M0 -432.7C63.4 -400.8 126.8 -369 194.5 -336.9C262.2 -304.8 334.3 -272.5 374.7 -216.3C415.1 -160.1 423.9 -80.1 432.7 0L0 0Z" fill="#F96D00"></path></g></svg>