<svg id="visual" viewBox="0 0 900 600" width="900" height="600" xmlns="http://www.w3.org/2000/svg" xmlns:xlink="http://www.w3.org/1999/xlink" version="1.1"><rect x="0" y="0" width="900" height="600" fill="#001220"></rect><defs><linearGradient id="grad1_0" x1="33.3%" y1="0%" x2="100%" y2="100%"><stop offset="20%" stop-color="#001220" stop-opacity="1"></stop><stop offset="80%" stop-color="#001220" stop-opacity="1"></stop></linearGradient></defs><defs><linearGradient id="grad2_0" x1="0%" y1="0%" x2="66.7%" y2="100%"><stop offset="20%" stop-color="#001220" stop-opacity="1"></stop><stop offset="80%" stop-color="#001220" stop-opacity="1"></stop></linearGradient></defs><g transform="translate(900, 0)"><path d="M0 378.6C-56.8 380.4 -113.7 382.2 -144.9 349.8C-176.1 317.3 -181.7 250.5 -213.5 213.5C-245.4 176.6 -303.5 169.5 -335.4 138.9C-367.2 108.3 -372.9 54.1 -378.6 0L0 0Z" fill="#F96D00"></path></g><g transform="translate(0, 600)"><path d="M0 -378.6C23.5 -309.2 47 -239.9 95.3 -230C143.6 -220.2 216.6 -270 264.5 -264.5C312.3 -258.9 334.9 -198.2 349.8 -144.9C364.6 -91.6 371.6 -45.8 378.6 0L0 0Z" fill="#F96D00"></path></g></svg>