<svg id="visual" viewBox="0 0 900 600" width="900" height="600" xmlns="http://www.w3.org/2000/svg" xmlns:xlink="http://www.w3.org/1999/xlink" version="1.1"><rect x="0" y="0" width="900" height="600" fill="#001220"></rect><defs><linearGradient id="grad1_0" x1="33.3%" y1="100%" x2="100%" y2="0%"><stop offset="20%" stop-color="#001220" stop-opacity="1"></stop><stop offset="80%" stop-color="#001220" stop-opacity="1"></stop></linearGradient></defs><defs><linearGradient id="grad2_0" x1="0%" y1="100%" x2="66.7%" y2="0%"><stop offset="20%" stop-color="#001220" stop-opacity="1"></stop><stop offset="80%" stop-color="#001220" stop-opacity="1"></stop></linearGradient></defs><g transform="translate(900, 600)"><path d="M-378.6 0C-380.4 -56.8 -382.2 -113.7 -349.8 -144.9C-317.3 -176.1 -250.5 -181.7 -213.5 -213.5C-176.6 -245.4 -169.5 -303.5 -138.9 -335.4C-108.3 -367.2 -54.1 -372.9 0 -378.6L0 0Z" fill="#F96D00"></path></g><g transform="translate(0, 0)"><path d="M378.6 0C309.2 23.5 239.9 47 230 95.3C220.2 143.6 270 216.6 264.5 264.5C258.9 312.3 198.2 334.9 144.9 349.8C91.6 364.6 45.8 371.6 0 378.6L0 0Z" fill="#F96D00"></path></g></svg>