<?xml version="1.0" encoding="utf-8"?>
<!-- Generator: Adobe Illustrator 25.0.0, SVG Export Plug-In . SVG Version: 6.00 Build 0)  -->
<svg version="1.1" id="Layer_1" xmlns="http://www.w3.org/2000/svg" xmlns:xlink="http://www.w3.org/1999/xlink" x="0px" y="0px"
	 viewBox="0 0 64 40" style="enable-background:new 0 0 64 40;" xml:space="preserve">
<style type="text/css">
	.st0{fill:#EBEBEB;}
	.st1{fill:#F2F2F2;}
	.st2{fill:#FF7D12;}
	.st3{fill-rule:evenodd;clip-rule:evenodd;fill:#FF7D12;}
</style>
<path class="st0" d="M34,8h12V4c0,0,0-4-4-4C40,0,36,4,34,8z"/>
<path class="st1" d="M6,26v8h58v-6c0-6-2-10-2-12v-4c0-2-2-2-4-2h-4c-4,0-8-2-10-4s-4-2-4-2c-2,0-4,2-6,4S22,24,18,24
	C18,24,16,24,6,26z"/>
<path class="st2" d="M18,24v2c6,0,8-4,12-8c2-2,4,0,6-2c2-2,0.6-2.6,2-4l6-6c-2-2-4-2-4-2c-2,0-4,2-6,4S22,24,18,24z"/>
<path class="st3" d="M36,30c1.6,0,6-2.5,10.7-5.5C47.5,25.8,48,27,48,28v6h16v-8c0-1.1-3.1-3.4-8.2-7.6C59.4,15.9,62,14,62,14v-2
	c0,0-3.7,2.1-8.3,4.6C49.9,13.4,45.2,9.2,40,4c0,0-2,0-4,2s-2,4-2,4c2.4,2.4,7.1,7,10.4,11.2C40.8,22.8,37.7,24,36,24
	c-2.2,0-2-4-2-4s-4,2-4,6S34,30,36,30z M2,30v4h30c0,0-6-4-8-6s-4-4-6-4s-2,2-2,2c0,2,0,4-2,4c-6,0-8-4-8-4S2,26,2,30z"/>
<path class="st0" d="M0,32c0,8,26,8,32,8h25c7,0,7-2,7-6c0-2,0-2-2-2s-20,2-30,2C6.6,34,4,30,2,30S0,32,0,32z"/>
</svg>
