<?xml version="1.0" encoding="utf-8"?>
<!-- Generator: Adobe Illustrator 25.0.0, SVG Export Plug-In . SVG Version: 6.00 Build 0)  -->
<svg version="1.1" id="Layer_1" xmlns="http://www.w3.org/2000/svg" xmlns:xlink="http://www.w3.org/1999/xlink" x="0px" y="0px"
	 viewBox="0 0 70.5 70.5" style="enable-background:new 0 0 70.5 70.5;" xml:space="preserve">
<style type="text/css">
	.st0{fill-rule:evenodd;clip-rule:evenodd;fill:#001220;}
	.st1{fill:#EBEBEB;}
	.st2{fill:#F2F2F2;}
	.st3{fill:#FF7D12;}
	.st4{fill-rule:evenodd;clip-rule:evenodd;fill:#FF7D12;}
</style>
<g id="Layer_2_1_">
</g>
<g id="Layer_3">
	<rect x="-2.5" y="-2.7" class="st0" width="76.3" height="76.3"/>
</g>
<g id="Layer_1_1_">
	<path class="st1" d="M36.9,23.3h9.6v-3.2c0,0,0-3.2-3.2-3.2C41.7,16.9,38.5,20.1,36.9,23.3z"/>
	<path class="st2" d="M14.5,37.7v6.4h46.4v-4.8c0-4.8-1.6-8-1.6-9.6v-3.2c0-1.6-1.6-1.6-3.2-1.6h-3.2c-3.2,0-6.4-1.6-8-3.2
		c-1.6-1.6-3.2-1.6-3.2-1.6c-1.6,0-3.2,1.6-4.8,3.2c-1.6,1.6-9.6,12.8-12.8,12.8C24.1,36.1,22.5,36.1,14.5,37.7z"/>
	<path class="st3" d="M24.1,36.1v1.6c4.8,0,6.4-3.2,9.6-6.4c1.6-1.6,3.2,0,4.8-1.6c1.6-1.6,0.5-2.1,1.6-3.2l4.8-4.8
		c-1.6-1.6-3.2-1.6-3.2-1.6c-1.6,0-3.2,1.6-4.8,3.2C35.2,24.9,27.3,36.1,24.1,36.1z"/>
	<path class="st4" d="M38.5,40.9c1.3,0,4.8-2,8.6-4.4c0.6,1,1,2,1,2.8v4.8h12.8v-6.4c0-0.9-2.5-2.7-6.6-6.1c2.9-2,5-3.5,5-3.5v-1.6
		c0,0-3,1.7-6.6,3.7c-3-2.6-6.8-5.9-11-10.1c0,0-1.6,0-3.2,1.6c-1.6,1.6-1.6,3.2-1.6,3.2c1.9,1.9,5.7,5.6,8.3,9
		c-2.9,1.3-5.4,2.2-6.7,2.2c-1.8,0-1.6-3.2-1.6-3.2s-3.2,1.6-3.2,4.8S36.9,40.9,38.5,40.9z M11.3,40.9v3.2h24c0,0-4.8-3.2-6.4-4.8
		c-1.6-1.6-3.2-3.2-4.8-3.2c-1.6,0-1.6,1.6-1.6,1.6c0,1.6,0,3.2-1.6,3.2c-4.8,0-6.4-3.2-6.4-3.2S11.3,37.7,11.3,40.9z"/>
	<path class="st1" d="M9.7,42.5c0,6.4,20.8,6.4,25.6,6.4h20c5.6,0,5.6-1.6,5.6-4.8c0-1.6,0-1.6-1.6-1.6c-1.6,0-16,1.6-24,1.6
		c-20.3,0-22.4-3.2-24-3.2S9.7,42.5,9.7,42.5z"/>
</g>
</svg>
